<?xml version="1.0" encoding="utf-8"?>
<!-- Generator: Adobe Illustrator 16.0.0, SVG Export Plug-In . SVG Version: 6.00 Build 0)  -->
<!DOCTYPE svg PUBLIC "-//W3C//DTD SVG 1.1//EN" "http://www.w3.org/Graphics/SVG/1.1/DTD/svg11.dtd">
<svg version="1.1" id="Layer_1" xmlns="http://www.w3.org/2000/svg" xmlns:xlink="http://www.w3.org/1999/xlink" x="0px" y="0px"
	 width="1029px" height="311px" viewBox="0 0 1029 311" enable-background="new 0 0 1029 311" xml:space="preserve">
<g>
	<path fill="#F3459C" d="M75.5,0C33.802,0,0,33.802,0,75.5S33.802,151,75.5,151S151,117.198,151,75.5S117.198,0,75.5,0z
		 M75.5,144.79c-38.268,0-69.29-31.022-69.29-69.29S37.232,6.21,75.5,6.21s69.29,31.022,69.29,69.29S113.768,144.79,75.5,144.79z"/>
	<circle fill="#F3459C" cx="75.5" cy="75.5" r="60.139"/>
</g>
<g>
	<path fill="#F3459C" d="M251.1,0c-41.698,0-75.5,33.802-75.5,75.5s33.802,75.5,75.5,75.5c41.698,0,75.5-33.802,75.5-75.5
		S292.798,0,251.1,0z M251.1,144.79c-38.268,0-69.29-31.022-69.29-69.29S212.833,6.21,251.1,6.21s69.29,31.022,69.29,69.29
		S289.368,144.79,251.1,144.79z"/>
	<circle fill="#F3459C" cx="251.1" cy="75.5" r="60.139"/>
</g>
<g>
	<path fill="#F3459C" d="M953.5,0C911.803,0,878,33.802,878,75.5s33.803,75.5,75.5,75.5s75.5-33.802,75.5-75.5S995.197,0,953.5,0z
		 M953.5,144.79c-38.268,0-69.29-31.022-69.29-69.29S915.232,6.21,953.5,6.21s69.29,31.022,69.29,69.29S991.768,144.79,953.5,144.79
		z"/>
	<circle fill="#F3459C" cx="953.5" cy="75.5" r="60.139"/>
</g>
<g>
	<path fill="#F3459C" d="M777.9,6c-41.697,0-75.5,33.802-75.5,75.5s33.803,75.5,75.5,75.5c41.696,0,75.5-33.802,75.5-75.5
		S819.598,6,777.9,6z M777.9,150.79c-38.269,0-69.29-31.022-69.29-69.29s31.021-69.29,69.29-69.29
		c38.268,0,69.29,31.022,69.29,69.29S816.168,150.79,777.9,150.79z"/>
	<circle fill="#F3459C" cx="777.9" cy="81.5" r="60.139"/>
</g>
<g>
	<path fill="#F3459C" d="M426.7,0c-41.698,0-75.5,33.802-75.5,75.5s33.802,75.5,75.5,75.5c41.696,0,75.5-33.802,75.5-75.5
		S468.396,0,426.7,0z M426.7,144.79c-38.268,0-69.29-31.022-69.29-69.29S388.433,6.21,426.7,6.21c38.267,0,69.29,31.022,69.29,69.29
		S464.968,144.79,426.7,144.79z"/>
	<circle fill="#F3459C" cx="426.7" cy="75.5" r="60.139"/>
</g>
<g>
	<path fill="#F3459C" d="M602.3,0c-41.697,0-75.5,33.802-75.5,75.5s33.803,75.5,75.5,75.5s75.5-33.802,75.5-75.5S643.997,0,602.3,0z
		 M602.3,144.79c-38.268,0-69.29-31.022-69.29-69.29S564.032,6.21,602.3,6.21c38.269,0,69.29,31.022,69.29,69.29
		S640.567,144.79,602.3,144.79z"/>
	<circle fill="#F3459C" cx="602.3" cy="75.5" r="60.139"/>
</g>
<rect x="38.6" y="40" fill="none" width="73.8" height="83"/>
<g enable-background="new    ">
	<path fill="#FFFFFF" d="M60.405,42.852c3.264-0.815,7.141-1.326,11.527-1.326c6.222,0,11.526,1.326,15.199,4.795
		c2.958,2.754,4.488,6.834,4.488,11.73c0,7.038-3.876,12.648-10.609,15.301v0.204c7.957,2.142,12.751,8.568,12.751,17.544
		c0,5.713-1.836,10.303-4.896,13.669c-3.876,4.387-10.302,6.223-18.157,6.223c-5.1,0-8.161-0.307-10.303-0.714V42.852z
		 M68.259,71.005h3.57c6.426,0,11.935-4.896,11.935-12.139c0-6.324-2.958-11.221-11.323-11.221c-1.836,0-3.264,0.204-4.182,0.511
		V71.005z M68.259,104.36c0.918,0.204,2.244,0.408,3.979,0.408c8.16,0,13.464-4.794,13.464-13.669
		c0-9.486-6.63-13.975-13.975-14.076h-3.468V104.36z"/>
</g>
<rect x="214.2" y="36" fill="none" width="73.8" height="83"/>
<g enable-background="new    ">
	<path fill="#FFFFFF" d="M264.26,73.941h-17.239v25.808h19.585v6.834h-27.439V37.832h26.215v6.834h-18.361v22.646h17.239V73.941z"/>
</g>
<rect x="389.8" y="36" fill="none" width="73.8" height="83"/>
<g enable-background="new    ">
	<path fill="#FFFFFF" d="M418.898,85.978l-4.59,20.605h-7.548l15.709-68.751h8.67l15.3,68.751h-7.752l-4.59-20.605H418.898z
		 M433.077,79.653l-3.57-17.442c-1.02-4.896-1.938-10.608-2.754-15.709h-0.408c-0.816,5.202-1.836,11.118-2.754,15.709l-3.57,17.442
		H433.077z"/>
</g>
<rect x="565.399" y="36" fill="none" width="73.801" height="83"/>
<g enable-background="new    ">
	<path fill="#FFFFFF" d="M592.867,37.832v46.105c0,12.343,4.08,16.525,9.385,16.525c5.813,0,9.486-4.488,9.486-16.525V37.832h7.854
		v44.882c0,17.851-7.344,24.686-17.545,24.686c-10.303,0-17.035-6.732-17.035-23.768v-45.8H592.867z"/>
</g>
<rect x="741" y="40" fill="none" width="73.801" height="83"/>
<g enable-background="new    ">
	<path fill="#FFFFFF" d="M774.026,48.87h-12.547v-7.038h32.948v7.038h-12.547v61.713h-7.854V48.87z"/>
</g>
<rect x="919.3" y="38" fill="none" width="73.802" height="83"/>
<g enable-background="new    ">
	<path fill="#FFFFFF" d="M952.223,108.583V79.512l-15.096-39.68h8.262l6.121,17.238c1.733,4.794,3.57,10.2,5.1,15.505h0.204
		c1.429-5.305,3.162-10.507,4.998-15.811l5.814-16.933h8.263l-15.811,39.374v29.377H952.223z"/>
</g>
<g>
	<g>
		<path fill="#F3459C" d="M164.3,160c-41.698,0-75.5,33.802-75.5,75.5s33.802,75.5,75.5,75.5c41.698,0,75.5-33.802,75.5-75.5
			S205.998,160,164.3,160z M164.3,304.79c-38.268,0-69.29-31.022-69.29-69.29s31.022-69.29,69.29-69.29
			c38.268,0,69.29,31.022,69.29,69.29S202.567,304.79,164.3,304.79z"/>
	</g>
	<g>
		<path fill="#F3459C" d="M164.3,297.139c-33.988,0-61.639-27.651-61.639-61.639s27.651-61.639,61.639-61.639
			s61.639,27.651,61.639,61.639S198.288,297.139,164.3,297.139z M164.3,176.861c-32.333,0-58.639,26.306-58.639,58.639
			s26.305,58.639,58.639,58.639c32.334,0,58.639-26.306,58.639-58.639S196.634,176.861,164.3,176.861z"/>
	</g>
	<g>
		<rect x="122.6" y="200" fill="none" width="73.8" height="83"/>
	</g>
	<g enable-background="new    ">
		<path fill="#F3459C" d="M176.587,269.359c-2.142,1.122-5.508,1.836-9.792,1.836c-13.465,0-23.053-10.812-23.053-34.172
			c0-27.134,13.465-35.804,24.277-35.804c4.182,0,7.14,0.816,8.568,1.734l-1.734,6.63c-1.632-0.714-3.366-1.428-6.936-1.428
			c-7.344,0-15.913,7.14-15.913,28.153c0,21.013,7.752,27.949,16.117,27.949c2.958,0,5.61-0.714,7.242-1.53L176.587,269.359z"/>
	</g>
</g>
<g>
	<g>
		<g>
			<path fill="#F3459C" d="M691.1,160c-41.696,0-75.5,33.802-75.5,75.5s33.804,75.5,75.5,75.5c41.697,0,75.5-33.802,75.5-75.5
				S732.797,160,691.1,160z M691.1,304.79c-38.268,0-69.29-31.022-69.29-69.29s31.022-69.29,69.29-69.29
				c38.269,0,69.29,31.022,69.29,69.29S729.367,304.79,691.1,304.79z"/>
		</g>
		<g>
			<circle fill="#F3459C" cx="691.1" cy="235.5" r="60.139"/>
		</g>
	</g>
	<g>
		<rect x="654.2" y="200" fill="none" width="73.8" height="83"/>
	</g>
	<g enable-background="new    ">
		<path fill="#FFFFFF" d="M708.188,269.359c-2.142,1.122-5.508,1.836-9.792,1.836c-13.465,0-23.054-10.812-23.054-34.172
			c0-27.134,13.465-35.804,24.277-35.804c4.183,0,7.141,0.816,8.568,1.734l-1.734,6.63c-1.631-0.714-3.365-1.428-6.936-1.428
			c-7.344,0-15.913,7.14-15.913,28.153c0,21.013,7.753,27.949,16.117,27.949c2.958,0,5.61-0.714,7.242-1.53L708.188,269.359z"/>
	</g>
</g>
<g>
	<g>
		<g>
			<path fill="#F3459C" d="M866.7,160c-41.697,0-75.5,33.802-75.5,75.5s33.803,75.5,75.5,75.5s75.5-33.802,75.5-75.5
				S908.396,160,866.7,160z M866.7,304.79c-38.269,0-69.29-31.022-69.29-69.29s31.021-69.29,69.29-69.29
				c38.268,0,69.29,31.022,69.29,69.29S904.968,304.79,866.7,304.79z"/>
		</g>
		<g>
			<circle fill="#F3459C" cx="866.7" cy="235.5" r="60.139"/>
		</g>
	</g>
	<g>
		<rect x="829.801" y="194" fill="none" width="73.8" height="83"/>
	</g>
	<g enable-background="new    ">
		<path fill="#FFFFFF" d="M852.218,195.832h7.854v32.642h0.204c1.53-2.856,2.958-5.61,4.284-8.263l12.853-24.379h8.671
			l-16.831,29.377l17.239,39.374h-8.467l-14.076-33.151l-3.877,6.63v26.521h-7.854V195.832z"/>
	</g>
</g>
<g>
	<g>
		<path fill="#F3459C" d="M341.5,160c-41.698,0-75.5,33.802-75.5,75.5s33.802,75.5,75.5,75.5s75.5-33.802,75.5-75.5
			S383.198,160,341.5,160z M341.5,304.79c-38.268,0-69.29-31.022-69.29-69.29s31.022-69.29,69.29-69.29s69.29,31.022,69.29,69.29
			S379.768,304.79,341.5,304.79z"/>
	</g>
	<g>
		<path fill="#F3459C" d="M341.5,297.139c-33.988,0-61.639-27.651-61.639-61.639s27.651-61.639,61.639-61.639
			s61.639,27.651,61.639,61.639S375.488,297.139,341.5,297.139z M341.5,176.861c-32.334,0-58.639,26.306-58.639,58.639
			s26.305,58.639,58.639,58.639s58.639-26.306,58.639-58.639S373.834,176.861,341.5,176.861z"/>
	</g>
	<g>
		<rect x="299.8" y="200" fill="none" width="73.8" height="83"/>
	</g>
	<g enable-background="new    ">
		<path fill="#F3459C" d="M327.062,201.832v29.479h19.279v-29.479h7.854v68.751h-7.854v-32.132h-19.279v32.132h-7.854v-68.751
			H327.062z"/>
	</g>
</g>
<g>
	<g>
		<path fill="#F3459C" d="M515.3,160c-41.698,0-75.5,33.802-75.5,75.5s33.802,75.5,75.5,75.5s75.5-33.802,75.5-75.5
			S556.998,160,515.3,160z M515.3,304.79c-38.268,0-69.29-31.022-69.29-69.29s31.022-69.29,69.29-69.29
			c38.269,0,69.29,31.022,69.29,69.29S553.567,304.79,515.3,304.79z"/>
	</g>
	<g>
		<path fill="#F3459C" d="M515.3,297.139c-33.988,0-61.639-27.651-61.639-61.639s27.651-61.639,61.639-61.639
			c33.988,0,61.64,27.651,61.64,61.639S549.288,297.139,515.3,297.139z M515.3,176.861c-32.333,0-58.639,26.306-58.639,58.639
			s26.305,58.639,58.639,58.639c32.334,0,58.64-26.306,58.64-58.639S547.634,176.861,515.3,176.861z"/>
	</g>
	<g>
		<rect x="473.6" y="200" fill="none" width="73.801" height="83"/>
	</g>
	<g enable-background="new    ">
		<path fill="#F3459C" d="M523.66,237.941h-17.239v25.808h19.584v6.834h-27.439v-68.751h26.215v6.834h-18.361v22.646h17.239V237.941
			z"/>
	</g>
</g>
</svg>
