<?xml version="1.0" encoding="utf-8"?>
<!-- Generator: Adobe Illustrator 16.0.0, SVG Export Plug-In . SVG Version: 6.00 Build 0)  -->
<!DOCTYPE svg PUBLIC "-//W3C//DTD SVG 1.1//EN" "http://www.w3.org/Graphics/SVG/1.1/DTD/svg11.dtd">
<svg version="1.1" id="Layer_1" xmlns="http://www.w3.org/2000/svg" xmlns:xlink="http://www.w3.org/1999/xlink" x="0px" y="0px"
	 width="1029px" height="311px" viewBox="0 0 1029 311" enable-background="new 0 0 1029 311" xml:space="preserve">
<g>
	<path fill="#F3459C" d="M75.5,0C33.802,0,0,33.802,0,75.5S33.802,151,75.5,151S151,117.198,151,75.5S117.198,0,75.5,0z
		 M75.5,144.79c-38.268,0-69.29-31.022-69.29-69.29S37.232,6.21,75.5,6.21s69.29,31.022,69.29,69.29S113.768,144.79,75.5,144.79z"/>
	<circle fill="#F3459C" cx="75.5" cy="75.5" r="60.139"/>
</g>
<g>
	<path fill="#F3459C" d="M251.1,0c-41.698,0-75.5,33.802-75.5,75.5s33.802,75.5,75.5,75.5s75.5-33.802,75.5-75.5S292.798,0,251.1,0z
		 M251.1,144.79c-38.268,0-69.29-31.022-69.29-69.29S212.833,6.21,251.1,6.21s69.29,31.022,69.29,69.29S289.368,144.79,251.1,144.79
		z"/>
	<circle fill="#F3459C" cx="251.1" cy="75.5" r="60.139"/>
</g>
<g>
	<path fill="#F3459C" d="M953.5,0C911.803,0,878,33.802,878,75.5s33.803,75.5,75.5,75.5s75.5-33.802,75.5-75.5S995.197,0,953.5,0z
		 M953.5,144.79c-38.268,0-69.29-31.022-69.29-69.29S915.232,6.21,953.5,6.21s69.29,31.022,69.29,69.29S991.768,144.79,953.5,144.79
		z"/>
	<circle fill="#F3459C" cx="953.5" cy="75.5" r="60.139"/>
</g>
<g>
	<path fill="#F3459C" d="M777.9,6c-41.697,0-75.5,33.802-75.5,75.5s33.803,75.5,75.5,75.5s75.5-33.802,75.5-75.5S819.598,6,777.9,6z
		 M777.9,150.79c-38.268,0-69.29-31.022-69.29-69.29s31.022-69.29,69.29-69.29s69.29,31.022,69.29,69.29
		S816.168,150.79,777.9,150.79z"/>
	<circle fill="#F3459C" cx="777.9" cy="81.5" r="60.139"/>
</g>
<g>
	<path fill="#F3459C" d="M426.7,0c-41.698,0-75.5,33.802-75.5,75.5s33.802,75.5,75.5,75.5c41.697,0,75.5-33.802,75.5-75.5
		S468.397,0,426.7,0z M426.7,144.79c-38.268,0-69.29-31.022-69.29-69.29S388.433,6.21,426.7,6.21s69.29,31.022,69.29,69.29
		S464.968,144.79,426.7,144.79z"/>
	<circle fill="#F3459C" cx="426.7" cy="75.5" r="60.139"/>
</g>
<g>
	<path fill="#F3459C" d="M602.3,0c-41.697,0-75.5,33.802-75.5,75.5s33.803,75.5,75.5,75.5s75.5-33.802,75.5-75.5S643.997,0,602.3,0z
		 M602.3,144.79c-38.268,0-69.29-31.022-69.29-69.29S564.032,6.21,602.3,6.21s69.29,31.022,69.29,69.29S640.567,144.79,602.3,144.79
		z"/>
	<circle fill="#F3459C" cx="602.3" cy="75.5" r="60.139"/>
</g>
<rect x="38.6" y="40" fill="none" width="73.8" height="83"/>
<text transform="matrix(1 0 0 1 54.2847 110.583)" fill="#FFFFFF" font-family="'MyriadPro-Cond'" font-size="102">B</text>
<rect x="214.2" y="36" fill="none" width="73.8" height="83"/>
<text transform="matrix(1 0 0 1 233.0469 106.583)" fill="#FFFFFF" font-family="'MyriadPro-Cond'" font-size="102">E</text>
<rect x="389.8" y="36" fill="none" width="73.8" height="83"/>
<text transform="matrix(1 0 0 1 404.5151 106.583)" fill="#FFFFFF" font-family="'MyriadPro-Cond'" font-size="102">A</text>
<rect x="565.399" y="36" fill="none" width="73.801" height="83"/>
<text transform="matrix(1 0 0 1 578.9941 106.583)" fill="#FFFFFF" font-family="'MyriadPro-Cond'" font-size="102">U</text>
<rect x="741" y="40" fill="none" width="73.801" height="83"/>
<text transform="matrix(1 0 0 1 759.8477 110.583)" fill="#FFFFFF" font-family="'MyriadPro-Cond'" font-size="102">T</text>
<rect x="919.3" y="38" fill="none" width="73.801" height="83"/>
<text transform="matrix(1 0 0 1 936.1064 108.583)" fill="#FFFFFF" font-family="'MyriadPro-Cond'" font-size="102">Y</text>
<g>
	<path fill="#F3459C" d="M164.3,160c-41.698,0-75.5,33.802-75.5,75.5s33.802,75.5,75.5,75.5s75.5-33.802,75.5-75.5
		S205.998,160,164.3,160z M164.3,304.79c-38.268,0-69.29-31.022-69.29-69.29s31.022-69.29,69.29-69.29s69.29,31.022,69.29,69.29
		S202.567,304.79,164.3,304.79z"/>
	<circle fill="none" stroke="#F3459C" stroke-width="3" stroke-miterlimit="10" cx="164.3" cy="235.5" r="60.139"/>
	<rect x="122.6" y="200" fill="none" width="73.8" height="83"/>
	<text transform="matrix(1 0 0 1 140.4775 270.583)" fill="#F3459C" font-family="'MyriadPro-Cond'" font-size="102">C</text>
</g>
<g>
	<g>
		<path fill="#F3459C" d="M691.1,160c-41.697,0-75.5,33.802-75.5,75.5s33.803,75.5,75.5,75.5s75.5-33.802,75.5-75.5
			S732.797,160,691.1,160z M691.1,304.79c-38.268,0-69.29-31.022-69.29-69.29s31.022-69.29,69.29-69.29s69.29,31.022,69.29,69.29
			S729.367,304.79,691.1,304.79z"/>
		<circle fill="#F3459C" cx="691.1" cy="235.5" r="60.139"/>
	</g>
	<rect x="654.2" y="200" fill="none" width="73.8" height="83"/>
	<text transform="matrix(1 0 0 1 672.0781 270.583)" fill="#FFFFFF" font-family="'MyriadPro-Cond'" font-size="102">C</text>
</g>
<g>
	<g>
		<path fill="#F3459C" d="M866.7,160c-41.697,0-75.5,33.802-75.5,75.5s33.803,75.5,75.5,75.5s75.5-33.802,75.5-75.5
			S908.397,160,866.7,160z M866.7,304.79c-38.268,0-69.29-31.022-69.29-69.29s31.022-69.29,69.29-69.29s69.29,31.022,69.29,69.29
			S904.968,304.79,866.7,304.79z"/>
		<circle fill="#F3459C" cx="866.7" cy="235.5" r="60.139"/>
	</g>
	<rect x="829.801" y="194" fill="none" width="73.8" height="83"/>
	<text transform="matrix(1 0 0 1 846.0977 264.583)" fill="#FFFFFF" font-family="'MyriadPro-Cond'" font-size="102">K</text>
</g>
<g>
	<path fill="#F3459C" d="M341.5,160c-41.698,0-75.5,33.802-75.5,75.5s33.802,75.5,75.5,75.5s75.5-33.802,75.5-75.5
		S383.198,160,341.5,160z M341.5,304.79c-38.268,0-69.29-31.022-69.29-69.29s31.022-69.29,69.29-69.29s69.29,31.022,69.29,69.29
		S379.768,304.79,341.5,304.79z"/>
	<circle fill="none" stroke="#F3459C" stroke-width="3" stroke-miterlimit="10" cx="341.5" cy="235.5" r="60.139"/>
	<rect x="299.8" y="200" fill="none" width="73.8" height="83"/>
	<text transform="matrix(1 0 0 1 313.0874 270.583)" fill="#F3459C" font-family="'MyriadPro-Cond'" font-size="102">H</text>
</g>
<g>
	<path fill="#F3459C" d="M515.3,160c-41.698,0-75.5,33.802-75.5,75.5s33.802,75.5,75.5,75.5s75.5-33.802,75.5-75.5
		S556.998,160,515.3,160z M515.3,304.79c-38.268,0-69.29-31.022-69.29-69.29s31.022-69.29,69.29-69.29s69.29,31.022,69.29,69.29
		S553.567,304.79,515.3,304.79z"/>
	<circle fill="none" stroke="#F3459C" stroke-width="3" stroke-miterlimit="10" cx="515.3" cy="235.5" r="60.139"/>
	<rect x="473.6" y="200" fill="none" width="73.8" height="83"/>
	<text transform="matrix(1 0 0 1 492.4468 270.583)" fill="#F3459C" font-family="'MyriadPro-Cond'" font-size="102">E</text>
</g>
</svg>
